<svg xmlns="http://www.w3.org/2000/svg" width="150.829" height="64.068" viewBox="0 0 150.829 64.068"><g transform="translate(0)"><path d="M-1984.1-53.9v0Z" transform="translate(2050.72 83.838)" fill="#f2f2f2"/><path d="M-2100.226-47.406a29.482,29.482,0,0,1-29.437-29.437,29.339,29.339,0,0,1,7.017-19.047,1,1,0,0,1-.456-.41,30.041,30.041,0,0,0-7.2,19.5,30.1,30.1,0,0,0,30.075,30.075,29.891,29.891,0,0,0,10.207-1.777v-.729A29.058,29.058,0,0,1-2100.226-47.406Z" transform="translate(2130.301 106.917)" fill="#f2f2f2"/><path d="M-2067.037-111.535a30.026,30.026,0,0,0-20.505-8.065A29.881,29.881,0,0,0-2107-112.446c.046.046.091.091.091.137h0a1.994,1.994,0,0,1,.273.319,29.337,29.337,0,0,1,19.047-7.017,29.533,29.533,0,0,1,28.8,23.422.948.948,0,0,1,.592-.137A29.421,29.421,0,0,0-2067.037-111.535Z" transform="translate(2117.618 119.6)" fill="#f2f2f2"/><path d="M-2022.975-58.327a9.1,9.1,0,0,0-1.185-.228,2.219,2.219,0,0,0-.547-.046h-1.5l-10.389.046v4.785h2.506c.091,0,.137.091.091.182a9.738,9.738,0,0,0-1.23,4.693v26.566l5.741-3.281.137-7.792.091-5.7v-.228a.412.412,0,0,1,.5-.41h.046a9.711,9.711,0,0,0,2.825.547h.41a9.762,9.762,0,0,0,9.751-9.751A9.67,9.67,0,0,0-2022.975-58.327Zm-1.276,14.035a5.135,5.135,0,0,1-1.458.228h-.182a4.772,4.772,0,0,1-4.238-2.871,4.573,4.573,0,0,1-.41-1.595v-.456a4.881,4.881,0,0,1,4.876-4.876h0a4.766,4.766,0,0,1,1.64.273,9.118,9.118,0,0,1,.957.456,4.843,4.843,0,0,1,2.278,4.1A5.038,5.038,0,0,1-2024.251-44.292Z" transform="translate(2079.297 86.396)" fill="#f2f2f2"/><path d="M-2016.138-43.8a2.956,2.956,0,0,0-2.962,2.962,2.956,2.956,0,0,0,2.962,2.962,2.956,2.956,0,0,0,2.962-2.962A3.016,3.016,0,0,0-2016.138-43.8Zm0,5.377a2.451,2.451,0,0,1-2.461-2.461,2.451,2.451,0,0,1,2.461-2.461,2.451,2.451,0,0,1,2.461,2.461A2.51,2.51,0,0,1-2016.138-38.423Z" transform="translate(2069.771 78.34)" fill="#f2f2f2"/><text transform="translate(106.316 50.471)" fill="#f2f2f2" font-size="5" font-family="Calibri-Bold, Calibri" font-weight="700"><tspan x="0" y="0">smile everybody</tspan></text><circle cx="2.643" cy="2.643" r="2.643" transform="translate(18.318 13.351)" fill="none"/><circle cx="2.643" cy="2.643" r="2.643" transform="translate(36.545 13.351)" fill="none"/><path d="M-2015.23-45.308a4.037,4.037,0,0,0-.775-.365,4.234,4.234,0,0,0-1.322-.228h0a3.909,3.909,0,0,0-3.873,3.919v.365a4.039,4.039,0,0,0,.319,1.276,3.856,3.856,0,0,0,3.417,2.278h.137a3.4,3.4,0,0,0,1.185-.182,3.87,3.87,0,0,0,2.734-3.737A3.906,3.906,0,0,0-2015.23-45.308Z" transform="translate(2070.914 79.483)" fill="none"/><path d="M-2083.143-78.116a10.719,10.719,0,0,1,.775-3.919h-1.185v2.1a11.772,11.772,0,0,1-1.64,6.2,11.353,11.353,0,0,1-4.557,4.238,13.875,13.875,0,0,1-6.516,1.5,13.819,13.819,0,0,1-6.47-1.5,11.233,11.233,0,0,1-4.511-4.238,11.773,11.773,0,0,1-1.641-6.2V-94.2a.732.732,0,0,1,.228-.5.879.879,0,0,1,.5-.228h5.969v14.764a6.458,6.458,0,0,0,1.595,4.648,5.735,5.735,0,0,0,4.329,1.64,5.912,5.912,0,0,0,4.375-1.64,6.267,6.267,0,0,0,1.595-4.648V-94.93h6.061a.7.7,0,0,1,.683.684v5.514l10.39-.046h1.594c.183,0,.41.046.593.046a11.641,11.641,0,0,1,1.23.228,26.653,26.653,0,0,0-26.475-23.7,26.63,26.63,0,0,0-26.611,27.887,26.73,26.73,0,0,0,25.427,25.381,26.493,26.493,0,0,0,14.262-3.418V-78.116Zm-3.919-24.105a2.645,2.645,0,0,1,2.643,2.643,2.645,2.645,0,0,1-2.643,2.643,2.645,2.645,0,0,1-2.643-2.643A2.675,2.675,0,0,1-2087.062-102.221Zm-18.227,0a2.645,2.645,0,0,1,2.643,2.643,2.645,2.645,0,0,1-2.643,2.643,2.645,2.645,0,0,1-2.643-2.643A2.645,2.645,0,0,1-2105.289-102.221Z" transform="translate(2126.25 115.572)" fill="#f2f2f2"/><circle cx="1.549" cy="1.549" r="1.549" transform="translate(7.382 7.519)" fill="#f2f2f2"/><g transform="translate(63.931 27.842)"><path d="M-1944.644-39.681a7.151,7.151,0,0,0,.729.137,8.81,8.81,0,0,0,1.185.046,9.168,9.168,0,0,0,1.185-.046,7.147,7.147,0,0,0,.729-.137.878.878,0,0,0,.41-.228.492.492,0,0,0,.137-.319V-50.89a14.561,14.561,0,0,1,1-1.413,5.728,5.728,0,0,1,.911-.911,2.656,2.656,0,0,1,.82-.5,2.662,2.662,0,0,1,.82-.182,2.8,2.8,0,0,1,.638.046l.547.137a2.116,2.116,0,0,1,.41.137,1,1,0,0,0,.365.046.658.658,0,0,0,.319-.091c.091-.046.137-.182.182-.365s.091-.41.137-.684a8.126,8.126,0,0,0,.045-1.139v-1.094c0-.273-.045-.456-.045-.592a2.93,2.93,0,0,0-.091-.319c-.046-.091-.091-.137-.137-.228a1.983,1.983,0,0,0-.319-.182,4.717,4.717,0,0,0-.547-.137,2.666,2.666,0,0,0-.592-.091c-.182,0-.365-.046-.547-.046a4.492,4.492,0,0,0-1.094.137,3.9,3.9,0,0,0-1.094.5,7.18,7.18,0,0,0-1.139,1,12.991,12.991,0,0,0-1.276,1.595v-2.142a.658.658,0,0,0-.091-.319.581.581,0,0,0-.319-.228,4.846,4.846,0,0,0-.638-.137,6.434,6.434,0,0,0-1-.046,6.431,6.431,0,0,0-1,.046c-.273.046-.456.091-.638.137a.719.719,0,0,0-.365.228.845.845,0,0,0-.091.319v17.133a.414.414,0,0,0,.137.319C-1944.963-39.863-1944.826-39.772-1944.644-39.681Z" transform="translate(1965.559 58.5)" fill="#f2f2f2" fill-rule="evenodd"/><path d="M-1904-42.654c-.091-.137-.137-.228-.273-.273a.844.844,0,0,0-.319-.091h-6.744l6.379-9.888a3.769,3.769,0,0,0,.319-.592,2.79,2.79,0,0,0,.228-.547l.137-.547a3.012,3.012,0,0,0,.046-.684v-.957a3.012,3.012,0,0,0-.046-.684.859.859,0,0,0-.182-.41.818.818,0,0,0-.319-.228,1.4,1.4,0,0,0-.456-.046h-10.481a.858.858,0,0,0-.365.091.581.581,0,0,0-.228.319,5.943,5.943,0,0,0-.137.592,5.239,5.239,0,0,0-.046.911,3.56,3.56,0,0,0,.228,1.458.654.654,0,0,0,.592.456h6.06l-6.425,9.888c-.137.228-.273.41-.365.592a2.782,2.782,0,0,0-.228.547l-.137.547c0,.182-.046.41-.046.638v.866a1.815,1.815,0,0,0,.273,1.139.973.973,0,0,0,.775.365h11.21a1.072,1.072,0,0,0,.365-.091.581.581,0,0,0,.228-.319,1.914,1.914,0,0,0,.137-.638,6.1,6.1,0,0,0,.046-.957,6.1,6.1,0,0,0-.046-.957C-1903.859-42.289-1903.95-42.517-1904-42.654Z" transform="translate(1950.156 58.01)" fill="#f2f2f2" fill-rule="evenodd"/><path d="M-1867.823-56.039a6.884,6.884,0,0,0-2.78-1.823,11.749,11.749,0,0,0-4.01-.638,10.155,10.155,0,0,0-4.1.729,7.424,7.424,0,0,0-2.916,2,9.04,9.04,0,0,0-1.777,3.1,12.542,12.542,0,0,0-.592,4.01,13.332,13.332,0,0,0,.547,4.01,7.47,7.47,0,0,0,1.64,2.962,6.885,6.885,0,0,0,2.78,1.823,11.663,11.663,0,0,0,3.964.638,10.537,10.537,0,0,0,4.147-.729,7.424,7.424,0,0,0,2.916-2,8.271,8.271,0,0,0,1.732-3.1,13.723,13.723,0,0,0,.592-4.01,13.861,13.861,0,0,0-.547-4.056A7.593,7.593,0,0,0-1867.823-56.039Zm-3.053,9.66a5.127,5.127,0,0,1-.774,1.823,3.538,3.538,0,0,1-1.322,1.139,4.228,4.228,0,0,1-1.914.41,4.5,4.5,0,0,1-2.005-.41,3.016,3.016,0,0,1-1.276-1.23,5.672,5.672,0,0,1-.684-1.868,12.558,12.558,0,0,1-.228-2.324,9.526,9.526,0,0,1,.273-2.415,5.123,5.123,0,0,1,.775-1.823,3.17,3.17,0,0,1,1.321-1.139,4.168,4.168,0,0,1,1.868-.41,3.843,3.843,0,0,1,2.005.456,3.018,3.018,0,0,1,1.276,1.23,5.677,5.677,0,0,1,.683,1.868,12.636,12.636,0,0,1,.182,2.324A6.785,6.785,0,0,1-1870.876-46.379Z" transform="translate(1932.302 58.5)" fill="#f2f2f2" fill-rule="evenodd"/><path d="M-1819.36-54.034a7.713,7.713,0,0,0-1.048-2.324,5.118,5.118,0,0,0-1.959-1.549,7.135,7.135,0,0,0-2.962-.592,6.6,6.6,0,0,0-3.053.775,10.069,10.069,0,0,0-2.871,2.324v-1.959a.659.659,0,0,0-.091-.319.581.581,0,0,0-.319-.228,4.834,4.834,0,0,0-.638-.137,6.434,6.434,0,0,0-1-.046,6.436,6.436,0,0,0-1,.046c-.273.046-.456.091-.638.137a.719.719,0,0,0-.365.228.846.846,0,0,0-.091.319v17.133a.414.414,0,0,0,.137.319.881.881,0,0,0,.41.228,7.158,7.158,0,0,0,.729.137,8.812,8.812,0,0,0,1.185.046,9.169,9.169,0,0,0,1.185-.046,7.151,7.151,0,0,0,.729-.137.881.881,0,0,0,.41-.228.492.492,0,0,0,.137-.319V-51.619a9.9,9.9,0,0,1,1.959-1.959,3.153,3.153,0,0,1,1.868-.684,2.775,2.775,0,0,1,1.276.273,2.511,2.511,0,0,1,.911.775,3.85,3.85,0,0,1,.547,1.23,7.5,7.5,0,0,1,.182,1.959v9.751a.414.414,0,0,0,.137.319.719.719,0,0,0,.365.228,7.15,7.15,0,0,0,.729.137,9.168,9.168,0,0,0,1.185.046,8.1,8.1,0,0,0,1.139-.046,7.147,7.147,0,0,0,.729-.137.563.563,0,0,0,.365-.228.493.493,0,0,0,.137-.319V-50.845A15.126,15.126,0,0,0-1819.36-54.034Z" transform="translate(1905.848 58.5)" fill="#f2f2f2" fill-rule="evenodd"/><path d="M-1960.7-34.668a16.721,16.721,0,0,1-7.883-1.64,12.392,12.392,0,0,1-3.6-3.007l-.046-.046a10.423,10.423,0,0,1-2.187-6.288c-.046-2.643-.137-5.286-.182-7.883a4.751,4.751,0,0,0-1.367-3.235c-.046-.046-.091-.091-.137-.091a3.086,3.086,0,0,0-.638-.5,7.029,7.029,0,0,0-1.731-.729,12.658,12.658,0,0,0-3.463-.41,11.186,11.186,0,0,0-2.187.182,17.892,17.892,0,0,0-1.959.456,10.556,10.556,0,0,0-1.595.638,3.919,3.919,0,0,0-.957.592,1.3,1.3,0,0,0-.365.638,4.829,4.829,0,0,0-.091.957,4.97,4.97,0,0,0,.045.82,1.823,1.823,0,0,0,.182.592,1.258,1.258,0,0,0,.273.365.517.517,0,0,0,.365.137,1.751,1.751,0,0,0,.775-.273c.319-.182.729-.365,1.23-.592a12.044,12.044,0,0,1,1.686-.592,7.868,7.868,0,0,1,2.142-.273,5.163,5.163,0,0,1,1.549.182,2.446,2.446,0,0,1,1,.592,3.009,3.009,0,0,1,.547,1,6.267,6.267,0,0,1,.182,1.413v1.048h-1.686a20.757,20.757,0,0,0-4.01.365,9.209,9.209,0,0,0-2.871,1.048,4.72,4.72,0,0,0-1.732,1.823,5.212,5.212,0,0,0-.592,2.6,5.715,5.715,0,0,0,.456,2.415,4.9,4.9,0,0,0,1.276,1.732,5.786,5.786,0,0,0,1.959,1.048,8.757,8.757,0,0,0,2.506.365,7.254,7.254,0,0,0,3.007-.638,5.584,5.584,0,0,0,.684-.365,7.9,7.9,0,0,0,1.868-1.549,18.074,18.074,0,0,0,.82,1.777,16.31,16.31,0,0,0,8.02,6.881,17.781,17.781,0,0,0,8.795,1c6.379-.82,10.845-4.967,10.617-5.377C-1950.174-37.812-1954.321-34.668-1960.7-34.668Zm-18.455-9.979a7.137,7.137,0,0,1-1.732,1.5,3.29,3.29,0,0,1-1.868.5,2.56,2.56,0,0,1-1.868-.592,2.132,2.132,0,0,1-.684-1.686,3.173,3.173,0,0,1,.228-1.139,2.209,2.209,0,0,1,.775-.82,3.481,3.481,0,0,1,1.322-.5,8.591,8.591,0,0,1,2-.182h1.823Z" transform="translate(1990 58.5)" fill="#f2f2f2" fill-rule="evenodd"/><path d="M-1905.109-14.333c-.319-.365-1.959,0-2.734.182-.228.046-.273-.137-.091-.319a4.316,4.316,0,0,1,3.737-.729,4.135,4.135,0,0,1-.957,3.645c-.182.182-.365.091-.319-.091.182-.684.684-2.324.365-2.688" transform="translate(1945.391 35.021)" fill="#f2f2f2" fill-rule="evenodd"/></g></g></svg>