<svg xmlns="http://www.w3.org/2000/svg" width="28.187" height="17.48" viewBox="0 0 28.187 17.48"><path d="M19.182,2.185h8.15L28.187,0H9.4V12.017H23.489l.854-2.185H19.182c-.216,0-.391-.122-.391-.273V9.013c0-.151.175-.273.391-.273H24.77l.854-2.185H19.182c-.216,0-.391-.122-.391-.273V5.735c0-.151.175-.273.391-.273h6.869l.854-2.185H19.182c-.216,0-.391-.122-.391-.273V2.458C18.791,2.307,18.966,2.185,19.182,2.185ZM7.771,11.437,6.509,9.277a.91.91,0,0,0-.844-.35l-2.2.151a5.28,5.28,0,0,1,0-5.043l2.2.151a.911.911,0,0,0,.844-.35l1.262-2.16c.148-.252.01-.541-.327-.685L5.522.168A2.245,2.245,0,0,0,3.374.409c-4.53,3.537-4.5,8.861.1,12.375a2.3,2.3,0,0,0,2.038.164l1.929-.825c.337-.144.475-.433.327-.685ZM23.489,13.11H9.4c-1.73,0-3.132.978-3.132,2.185v1.092c0,.6.7,1.092,1.566,1.092H25.055c.865,0,1.566-.489,1.566-1.092V15.295C26.621,14.088,25.219,13.11,23.489,13.11Zm-7.047,3.277c-.865,0-1.566-.489-1.566-1.092s.7-1.092,1.566-1.092,1.566.489,1.566,1.092S17.307,16.387,16.442,16.387Z" transform="translate(0 0)" fill="#006d74"/></svg>