<svg xmlns="http://www.w3.org/2000/svg" width="44.664" height="39.702" viewBox="0 0 44.664 39.702"><path d="M39.137,24.814H16.406l.508,2.481H37.727a1.861,1.861,0,0,1,1.815,2.273l-.428,1.882a4.344,4.344,0,1,1-4.931.807H17.926a4.342,4.342,0,1,1-5.2-.664L7.28,4.963H1.861A1.861,1.861,0,0,1,0,3.1V1.861A1.861,1.861,0,0,1,1.861,0h7.95a1.861,1.861,0,0,1,1.823,1.488l.711,3.475H42.8a1.861,1.861,0,0,1,1.815,2.273L40.952,23.365A1.861,1.861,0,0,1,39.137,24.814Zm-7.885-9.925H27.915V10.236a.931.931,0,0,0-.931-.931H25.124a.931.931,0,0,0-.931.931v4.653H20.857a.93.93,0,0,0-.658,1.588l5.2,5.2a.931.931,0,0,0,1.316,0l5.2-5.2A.931.931,0,0,0,31.252,14.888Z" fill="#15a6b1"/></svg>