<svg xmlns="http://www.w3.org/2000/svg" width="59.752" height="48.47" viewBox="0 0 59.752 48.47"><g transform="translate(-1149.211 -590.243)"><path d="M1.179,27.87H2.359V19.311A3.948,3.948,0,0,1,3.4,16.627l7.363-7.91a3.419,3.419,0,0,1,2.5-1.116h3.25V3.8A3.677,3.677,0,0,1,20.047,0H38.915a3.677,3.677,0,0,1,3.538,3.8V7.6h4.127a.614.614,0,0,1,.59.633V9.5a.614.614,0,0,1-.59.633H26.533a.614.614,0,0,0-.59.633v1.267a.614.614,0,0,0,.59.633H44.222a.614.614,0,0,1,.59.633v1.267a.614.614,0,0,1-.59.633H28.892a.614.614,0,0,0-.59.633V17.1a.614.614,0,0,0,.59.633H46.581a.614.614,0,0,1,.59.633v1.267a.614.614,0,0,1-.59.633H31.25a.614.614,0,0,0-.59.633v1.267a.614.614,0,0,0,.59.633h11.2V32.937a7.354,7.354,0,0,1-7.076,7.6,7.354,7.354,0,0,1-7.076-7.6H18.868a7.354,7.354,0,0,1-7.076,7.6,7.354,7.354,0,0,1-7.076-7.6H1.179A1.229,1.229,0,0,1,0,31.67V29.136A1.229,1.229,0,0,1,1.179,27.87Zm34.2,8.868a3.81,3.81,0,1,0-3.538-3.8A3.677,3.677,0,0,0,35.378,36.737Zm-23.585,0a3.81,3.81,0,0,0,0-7.6,3.81,3.81,0,0,0,0,7.6ZM5.9,20.269H16.51V11.4h-3.25L5.9,19.311Z" transform="translate(1149.211 598.175)" fill="#15a6b1"/><path d="M12.34,12.433A1.763,1.763,0,1,0,10.577,14.2,1.768,1.768,0,0,0,12.34,12.433ZM10.577,4.5a7.933,7.933,0,0,0-7.933,7.933H0l3.526,3.526,3.526-3.526H4.407A6.174,6.174,0,1,1,7,17.457L5.747,18.726A7.933,7.933,0,1,0,10.577,4.5Z" transform="translate(1190.454 585.743)" fill="#15a6b1"/></g></svg>