<svg xmlns="http://www.w3.org/2000/svg" width="19.163" height="17.794" viewBox="0 0 19.163 17.794"><path d="M20.686,9.535H14.394L12.482,3.828a.693.693,0,0,0-1.3,0L9.269,9.535H2.934a.686.686,0,0,0-.684.684.5.5,0,0,0,.013.115.658.658,0,0,0,.287.483l5.171,3.644-1.985,5.77a.686.686,0,0,0,.235.77.662.662,0,0,0,.385.167.839.839,0,0,0,.428-.154l5.047-3.6,5.047,3.6a.8.8,0,0,0,.428.154A.615.615,0,0,0,17.687,21a.678.678,0,0,0,.235-.77l-1.985-5.77,5.129-3.679.124-.107a.718.718,0,0,0,.222-.458A.724.724,0,0,0,20.686,9.535Z" transform="translate(-2.25 -3.375)"/></svg>