<svg xmlns="http://www.w3.org/2000/svg" width="50.291" height="50.381" viewBox="0 0 50.291 50.381"><path d="M32.361,10.525a11.282,11.282,0,0,1,8.913,8.913M32.361,1.5A20.307,20.307,0,0,1,50.3,19.415M48.042,37.421V44.19A4.513,4.513,0,0,1,43.123,48.7a44.653,44.653,0,0,1-19.472-6.927A44,44,0,0,1,10.113,28.238,44.653,44.653,0,0,1,3.186,8.675a4.513,4.513,0,0,1,4.49-4.919h6.769a4.513,4.513,0,0,1,4.513,3.881,28.971,28.971,0,0,0,1.579,6.34,4.513,4.513,0,0,1-1.015,4.761L16.656,21.6A36.1,36.1,0,0,0,30.194,35.142l2.866-2.866a4.513,4.513,0,0,1,4.761-1.015,28.971,28.971,0,0,0,6.34,1.579A4.513,4.513,0,0,1,48.042,37.421Z" transform="translate(-1.666 0.156)" fill="none" stroke="#15a6b1" stroke-linecap="round" stroke-linejoin="round" stroke-width="3"/></svg>