<svg xmlns="http://www.w3.org/2000/svg" width="60.968" height="48.774" viewBox="0 0 60.968 48.774"><path d="M59.443,33.532H57.919v-10.3A4.573,4.573,0,0,0,56.576,20l-9.517-9.517A4.573,4.573,0,0,0,43.83,9.145h-4.2V4.573A4.574,4.574,0,0,0,35.056,0H10.669A4.574,4.574,0,0,0,6.1,4.573V9.145H.762A.764.764,0,0,0,0,9.907v1.524a.764.764,0,0,0,.762.762H26.673a.764.764,0,0,1,.762.762V14.48a.764.764,0,0,1-.762.762H3.81A.764.764,0,0,0,3.048,16v1.524a.764.764,0,0,0,.762.762H23.625a.764.764,0,0,1,.762.762v1.524a.764.764,0,0,1-.762.762H.762A.764.764,0,0,0,0,22.1v1.524a.764.764,0,0,0,.762.762H20.577a.764.764,0,0,1,.762.762v1.524a.764.764,0,0,1-.762.762H6.1V39.629a9.145,9.145,0,0,0,18.29,0H36.581a9.145,9.145,0,0,0,18.29,0h4.573A1.529,1.529,0,0,0,60.968,38.1V35.056A1.529,1.529,0,0,0,59.443,33.532ZM15.242,44.2a4.573,4.573,0,1,1,4.573-4.573A4.574,4.574,0,0,1,15.242,44.2Zm30.484,0A4.573,4.573,0,1,1,50.3,39.629,4.574,4.574,0,0,1,45.726,44.2Zm7.621-19.814H39.629V13.718h4.2l9.517,9.517Z" fill="#15a6b1"/></svg>