<svg xmlns="http://www.w3.org/2000/svg" width="30.476" height="29.227" viewBox="0 0 30.476 29.227"><g transform="translate(1.5 1.5)"><path d="M14.5,31.249A1.249,1.249,0,1,1,13.249,30,1.249,1.249,0,0,1,14.5,31.249Z" transform="translate(-3.258 -6.271)" fill="none" stroke="#fff" stroke-linecap="round" stroke-linejoin="round" stroke-width="3"/><path d="M31,31.249A1.249,1.249,0,1,1,29.749,30,1.249,1.249,0,0,1,31,31.249Z" transform="translate(-6.02 -6.271)" fill="none" stroke="#fff" stroke-linecap="round" stroke-linejoin="round" stroke-width="3"/><path d="M1.5,1.5h5L9.843,18.223a2.5,2.5,0,0,0,2.5,2.011H24.48a2.5,2.5,0,0,0,2.5-2.011l2-10.478H7.745" transform="translate(-1.5 -1.5)" fill="none" stroke="#fff" stroke-linecap="round" stroke-linejoin="round" stroke-width="3"/></g></svg>