<svg xmlns="http://www.w3.org/2000/svg" width="24.978" height="22.917" viewBox="0 0 24.978 22.917"><path d="M21.109,4.5a7.479,7.479,0,0,0-5.62,2.61A7.479,7.479,0,0,0,9.869,4.5,6.8,6.8,0,0,0,3,11.369c0,4.721,4.246,8.568,10.678,14.412l1.811,1.636L17.3,25.769c6.432-5.832,10.678-9.679,10.678-14.4A6.8,6.8,0,0,0,21.109,4.5Zm-5.5,19.421-.125.125-.125-.125C9.419,18.538,5.5,14.978,5.5,11.369A4.268,4.268,0,0,1,9.869,7a4.883,4.883,0,0,1,4.459,2.947h2.335A4.852,4.852,0,0,1,21.109,7a4.268,4.268,0,0,1,4.371,4.371C25.48,14.978,21.559,18.538,15.614,23.921Z" transform="translate(-3 -4.5)" fill="#fff"/></svg>